<svg width="135" height="60" viewBox="0 0 135 60" fill="none" xmlns="http://www.w3.org/2000/svg">
<path d="M25.1 17C27.6 16.6333 29.8 15.75 31.7 14.35H36.15V47H30.25V21.4C28.55 22.2333 26.8333 22.65 25.1 22.65V17ZM53.5211 42.25C58.5878 42.25 61.1211 38.0833 61.1211 29.75C61.1211 28.85 61.0544 27.8667 60.9211 26.8C60.4878 29.4 59.4044 31.3667 57.6711 32.7C56.1378 33.8667 54.1878 34.45 51.8211 34.45C48.7878 34.45 46.3044 33.5 44.3711 31.6C42.4711 29.6667 41.5211 27.2 41.5211 24.2C41.5211 21.1333 42.6044 18.65 44.7711 16.75C46.9378 14.85 49.7544 13.9 53.2211 13.9C57.1544 13.9 60.4378 15.4 63.0711 18.4C65.7378 21.4667 67.0711 25.4167 67.0711 30.25C67.0711 38.6167 64.5711 44.0333 59.5711 46.5C57.9044 47.3 56.0878 47.7 54.1211 47.7C52.1878 47.7 50.4878 47.45 49.0211 46.95C47.5878 46.45 46.3378 45.75 45.2711 44.85C43.0044 42.95 41.8711 40.4667 41.8711 37.4H48.0211C48.0878 38.9 48.6211 40.0833 49.6211 40.95C50.6544 41.8167 51.9544 42.25 53.5211 42.25ZM53.2711 19.3C51.6711 19.3 50.3211 19.7667 49.2211 20.7C48.1544 21.6 47.6211 22.8667 47.6211 24.5C47.6211 26.1 48.1544 27.35 49.2211 28.25C50.3211 29.15 51.6711 29.6 53.2711 29.6C54.8378 29.6 56.1711 29.1333 57.2711 28.2C58.3711 27.2 58.9211 25.95 58.9211 24.45C58.9211 22.9167 58.3711 21.6667 57.2711 20.7C56.2044 19.7667 54.8711 19.3 53.2711 19.3Z" fill="white"/>
<path d="M14.25 24.71C15.75 25.23 16.87 25.89 17.61 26.69C18.35 27.47 18.72 28.51 18.72 29.81C18.72 31.23 18.14 32.46 16.98 33.5C15.7 34.6 13.91 35.23 11.61 35.39V38.03H9.09V35.33C7.01 35.13 5.32 34.51 4.02 33.47C2.64 32.35 1.95 30.83 1.95 28.91H5.46C5.46 29.87 5.77 30.6 6.39 31.1C7.01 31.6 7.91 31.92 9.09 32.06V26.24L7.59 25.73C5.91 25.17 4.61 24.5 3.69 23.72C2.77 22.92 2.31 21.81 2.31 20.39C2.31 18.97 2.88 17.79 4.02 16.85C5.18 15.89 6.87 15.33 9.09 15.17V12.89H11.61V15.2C13.55 15.4 15.03 16 16.05 17C17.07 18 17.72 19.3 18 20.9H14.49C14.39 20.3 14.09 19.77 13.59 19.31C13.11 18.83 12.45 18.5 11.61 18.32V23.78L14.25 24.71ZM11.61 32.12C12.69 32.02 13.48 31.75 13.98 31.31C14.48 30.87 14.73 30.35 14.73 29.75C14.73 28.61 14.01 27.77 12.57 27.23L11.61 26.87V32.12ZM9.09 18.23C8.13 18.35 7.4 18.62 6.9 19.04C6.42 19.46 6.18 19.95 6.18 20.51C6.18 21.07 6.34 21.52 6.66 21.86C6.98 22.18 7.49 22.46 8.19 22.7L9.09 23.06V18.23Z" fill="white"/>
<path d="M92.925 40.302C93.4577 39.112 94.3927 38.517 95.73 38.517C96.716 38.517 97.481 38.8513 98.025 39.52C98.5463 40.1547 98.807 41.0387 98.807 42.172V47H96.784V42.172C96.784 41.56 96.6367 41.101 96.342 40.795C96.0473 40.4777 95.6337 40.319 95.101 40.319C94.5683 40.319 94.132 40.5513 93.792 41.016C93.452 41.4807 93.2707 42.1833 93.248 43.124V47H91.242V42.172C91.242 41.56 91.0947 41.101 90.8 40.795C90.5053 40.4777 90.0917 40.319 89.559 40.319C89.0263 40.319 88.5673 40.557 88.182 41.033C87.808 41.509 87.6097 42.223 87.587 43.175V47H85.581V38.738H87.332L87.553 40.166C88.097 39.0667 88.9697 38.517 90.171 38.517C90.8623 38.517 91.4347 38.6757 91.888 38.993C92.3527 39.3103 92.6983 39.7467 92.925 40.302ZM104.285 38.517C104.84 38.517 105.361 38.6077 105.849 38.789C106.336 38.959 106.755 39.2253 107.107 39.588C107.889 40.3813 108.28 41.4807 108.28 42.886C108.28 44.2687 107.889 45.3567 107.107 46.15C106.404 46.8753 105.463 47.238 104.285 47.238C103.106 47.238 102.154 46.8753 101.429 46.15C100.647 45.368 100.256 44.28 100.256 42.886C100.256 41.4693 100.647 40.37 101.429 39.588C102.143 38.874 103.095 38.517 104.285 38.517ZM106.274 42.869C106.274 41.9963 106.104 41.3447 105.764 40.914C105.424 40.472 104.948 40.251 104.336 40.251C103.735 40.251 103.242 40.472 102.857 40.914C102.471 41.3447 102.279 41.9963 102.279 42.869C102.279 43.7417 102.449 44.399 102.789 44.841C103.14 45.2717 103.616 45.487 104.217 45.487C104.817 45.487 105.31 45.2717 105.696 44.841C106.081 44.399 106.274 43.7417 106.274 42.869ZM111.959 40.166C112.503 39.0667 113.375 38.517 114.577 38.517C115.597 38.517 116.362 38.8513 116.872 39.52C117.393 40.1887 117.654 41.0727 117.654 42.172V47H115.648V42.172C115.648 41.56 115.5 41.101 115.206 40.795C114.911 40.4777 114.497 40.319 113.965 40.319C113.432 40.319 112.973 40.557 112.588 41.033C112.214 41.509 112.015 42.223 111.993 43.175V47H109.987V38.738H111.738L111.959 40.166ZM124.556 46.796C123.808 47.0907 123.219 47.238 122.788 47.238C122.358 47.238 121.978 47.187 121.649 47.085C121.332 46.983 121.049 46.83 120.799 46.626C120.278 46.1613 120.017 45.521 120.017 44.705V40.081H118.861V38.738H120.017V36.562H122.023V38.738H124.267V40.081H122.023V44.637C122.023 45.317 122.346 45.657 122.992 45.657C123.321 45.657 123.746 45.5663 124.267 45.385L124.556 46.796ZM127.931 40.081C128.498 39.0383 129.325 38.517 130.413 38.517C131.501 38.517 132.3 38.8513 132.81 39.52C133.332 40.1887 133.592 41.0727 133.592 42.172V47H131.586V42.172C131.586 41.56 131.439 41.101 131.144 40.795C130.85 40.4777 130.436 40.319 129.903 40.319C129.371 40.319 128.912 40.557 128.526 41.033C128.152 41.509 127.954 42.223 127.931 43.175V47H125.925V35.338H127.931V40.081Z" fill="white"/>
<path d="M74.5 47L78 30" stroke="white" stroke-width="2" stroke-linecap="square"/>
</svg>
