<svg width="146" height="60" viewBox="0 0 146 60" fill="none" xmlns="http://www.w3.org/2000/svg">
<path d="M31.9 41.6H50.45V47H26V41.45C26 37.55 27.3833 34.7167 30.15 32.95C31.0833 32.35 32.1667 31.8167 33.4 31.35L40.05 28.8C41.5167 28.2333 42.5833 27.5333 43.25 26.7C43.95 25.8333 44.3 24.7667 44.3 23.5C44.3 22.2333 43.85 21.1833 42.95 20.35C42.05 19.4833 40.7667 19.05 39.1 19.05C37.4333 19.05 36.05 19.45 34.95 20.25C33.8833 21.05 33.2667 22.2333 33.1 23.8H26.55C26.6167 20.6333 27.8333 18.15 30.2 16.35C32.3667 14.7167 35.2833 13.9 38.95 13.9C42.3167 13.9 45.1 14.8 47.3 16.6C49.5333 18.4667 50.65 20.75 50.65 23.45C50.65 26.15 49.9667 28.3167 48.6 29.95C47.2667 31.55 45.1833 32.9 42.35 34L35.6 36.6C34.3 37.1 33.35 37.6667 32.75 38.3C32.1833 38.9 31.9 39.6833 31.9 40.65V41.6ZM65.9234 42.25C70.9901 42.25 73.5234 38.0833 73.5234 29.75C73.5234 28.85 73.4568 27.8667 73.3234 26.8C72.8901 29.4 71.8068 31.3667 70.0734 32.7C68.5401 33.8667 66.5901 34.45 64.2234 34.45C61.1901 34.45 58.7068 33.5 56.7734 31.6C54.8734 29.6667 53.9234 27.2 53.9234 24.2C53.9234 21.1333 55.0068 18.65 57.1734 16.75C59.3401 14.85 62.1568 13.9 65.6234 13.9C69.5568 13.9 72.8401 15.4 75.4734 18.4C78.1401 21.4667 79.4734 25.4167 79.4734 30.25C79.4734 38.6167 76.9734 44.0333 71.9734 46.5C70.3068 47.3 68.4901 47.7 66.5234 47.7C64.5901 47.7 62.8901 47.45 61.4234 46.95C59.9901 46.45 58.7401 45.75 57.6734 44.85C55.4068 42.95 54.2734 40.4667 54.2734 37.4H60.4234C60.4901 38.9 61.0234 40.0833 62.0234 40.95C63.0568 41.8167 64.3568 42.25 65.9234 42.25ZM65.6734 19.3C64.0734 19.3 62.7234 19.7667 61.6234 20.7C60.5568 21.6 60.0234 22.8667 60.0234 24.5C60.0234 26.1 60.5568 27.35 61.6234 28.25C62.7234 29.15 64.0734 29.6 65.6734 29.6C67.2401 29.6 68.5734 29.1333 69.6734 28.2C70.7734 27.2 71.3234 25.95 71.3234 24.45C71.3234 22.9167 70.7734 21.6667 69.6734 20.7C68.6068 19.7667 67.2734 19.3 65.6734 19.3Z" fill="#1F1F1F"/>
<path d="M14.25 24.71C15.75 25.23 16.87 25.89 17.61 26.69C18.35 27.47 18.72 28.51 18.72 29.81C18.72 31.23 18.14 32.46 16.98 33.5C15.7 34.6 13.91 35.23 11.61 35.39V38.03H9.09V35.33C7.01 35.13 5.32 34.51 4.02 33.47C2.64 32.35 1.95 30.83 1.95 28.91H5.46C5.46 29.87 5.77 30.6 6.39 31.1C7.01 31.6 7.91 31.92 9.09 32.06V26.24L7.59 25.73C5.91 25.17 4.61 24.5 3.69 23.72C2.77 22.92 2.31 21.81 2.31 20.39C2.31 18.97 2.88 17.79 4.02 16.85C5.18 15.89 6.87 15.33 9.09 15.17V12.89H11.61V15.2C13.55 15.4 15.03 16 16.05 17C17.07 18 17.72 19.3 18 20.9H14.49C14.39 20.3 14.09 19.77 13.59 19.31C13.11 18.83 12.45 18.5 11.61 18.32V23.78L14.25 24.71ZM11.61 32.12C12.69 32.02 13.48 31.75 13.98 31.31C14.48 30.87 14.73 30.35 14.73 29.75C14.73 28.61 14.01 27.77 12.57 27.23L11.61 26.87V32.12ZM9.09 18.23C8.13 18.35 7.4 18.62 6.9 19.04C6.42 19.46 6.18 19.95 6.18 20.51C6.18 21.07 6.34 21.52 6.66 21.86C6.98 22.18 7.49 22.46 8.19 22.7L9.09 23.06V18.23Z" fill="#1F1F1F"/>
<path d="M103.925 40.302C104.458 39.112 105.393 38.517 106.73 38.517C107.716 38.517 108.481 38.8513 109.025 39.52C109.546 40.1547 109.807 41.0387 109.807 42.172V47H107.784V42.172C107.784 41.56 107.637 41.101 107.342 40.795C107.047 40.4777 106.634 40.319 106.101 40.319C105.568 40.319 105.132 40.5513 104.792 41.016C104.452 41.4807 104.271 42.1833 104.248 43.124V47H102.242V42.172C102.242 41.56 102.095 41.101 101.8 40.795C101.505 40.4777 101.092 40.319 100.559 40.319C100.026 40.319 99.5673 40.557 99.182 41.033C98.808 41.509 98.6097 42.223 98.587 43.175V47H96.581V38.738H98.332L98.553 40.166C99.097 39.0667 99.9697 38.517 101.171 38.517C101.862 38.517 102.435 38.6757 102.888 38.993C103.353 39.3103 103.698 39.7467 103.925 40.302ZM115.285 38.517C115.84 38.517 116.361 38.6077 116.849 38.789C117.336 38.959 117.755 39.2253 118.107 39.588C118.889 40.3813 119.28 41.4807 119.28 42.886C119.28 44.2687 118.889 45.3567 118.107 46.15C117.404 46.8753 116.463 47.238 115.285 47.238C114.106 47.238 113.154 46.8753 112.429 46.15C111.647 45.368 111.256 44.28 111.256 42.886C111.256 41.4693 111.647 40.37 112.429 39.588C113.143 38.874 114.095 38.517 115.285 38.517ZM117.274 42.869C117.274 41.9963 117.104 41.3447 116.764 40.914C116.424 40.472 115.948 40.251 115.336 40.251C114.735 40.251 114.242 40.472 113.857 40.914C113.471 41.3447 113.279 41.9963 113.279 42.869C113.279 43.7417 113.449 44.399 113.789 44.841C114.14 45.2717 114.616 45.487 115.217 45.487C115.817 45.487 116.31 45.2717 116.696 44.841C117.081 44.399 117.274 43.7417 117.274 42.869ZM122.959 40.166C123.503 39.0667 124.375 38.517 125.577 38.517C126.597 38.517 127.362 38.8513 127.872 39.52C128.393 40.1887 128.654 41.0727 128.654 42.172V47H126.648V42.172C126.648 41.56 126.5 41.101 126.206 40.795C125.911 40.4777 125.497 40.319 124.965 40.319C124.432 40.319 123.973 40.557 123.588 41.033C123.214 41.509 123.015 42.223 122.993 43.175V47H120.987V38.738H122.738L122.959 40.166ZM135.556 46.796C134.808 47.0907 134.219 47.238 133.788 47.238C133.358 47.238 132.978 47.187 132.649 47.085C132.332 46.983 132.049 46.83 131.799 46.626C131.278 46.1613 131.017 45.521 131.017 44.705V40.081H129.861V38.738H131.017V36.562H133.023V38.738H135.267V40.081H133.023V44.637C133.023 45.317 133.346 45.657 133.992 45.657C134.321 45.657 134.746 45.5663 135.267 45.385L135.556 46.796ZM138.931 40.081C139.498 39.0383 140.325 38.517 141.413 38.517C142.501 38.517 143.3 38.8513 143.81 39.52C144.332 40.1887 144.592 41.0727 144.592 42.172V47H142.586V42.172C142.586 41.56 142.439 41.101 142.144 40.795C141.85 40.4777 141.436 40.319 140.903 40.319C140.371 40.319 139.912 40.557 139.526 41.033C139.152 41.509 138.954 42.223 138.931 43.175V47H136.925V35.338H138.931V40.081Z" fill="#1F1F1F"/>
<path d="M85.5 47L89 30" stroke="#1F1F1F" stroke-width="2" stroke-linecap="square"/>
</svg>
